<?xml version="1.0" standalone="no"?>
<!DOCTYPE svg PUBLIC "-//W3C//DTD SVG 20010904//EN"
 "http://www.w3.org/TR/2001/REC-SVG-20010904/DTD/svg10.dtd">
<svg version="1.0" xmlns="http://www.w3.org/2000/svg"
 width="700.000000pt" height="700.000000pt" viewBox="0 0 700.000000 700.000000"
 preserveAspectRatio="xMidYMid meet">
<metadata>
Created by potrace 1.11, written by Peter Selinger 2001-2013
</metadata>
<g transform="translate(0.000000,700.000000) scale(0.100000,-0.100000)"
fill="#000000" stroke="none">
<path d="M2850 6985 c-324 -72 -567 -318 -635 -641 -22 -102 -21 -606 1 -712
64 -314 307 -562 624 -639 96 -23 284 -21 381 5 157 42 283 116 395 234 106
110 168 223 207 377 20 79 22 110 21 386 0 277 -2 306 -22 380 -81 293 -283
505 -567 595 -92 29 -308 37 -405 15z m282 -563 c57 -25 105 -74 134 -137 23
-48 24 -59 24 -291 0 -282 -6 -311 -80 -384 -132 -133 -354 -92 -434 80 -20
42 -21 62 -21 300 0 244 1 257 22 300 67 136 219 192 355 132z"/>
<path d="M4901 6985 c-290 -66 -515 -269 -613 -555 l-32 -95 -4 -297 c-2 -187
0 -323 7 -368 51 -327 296 -591 626 -675 101 -26 284 -24 390 4 300 80 525
311 602 618 26 104 26 625 0 737 -70 298 -278 522 -572 616 -91 29 -307 37
-404 15z m281 -563 c57 -25 105 -74 134 -137 23 -48 24 -59 24 -291 0 -266 -6
-300 -61 -367 -75 -91 -206 -123 -310 -75 -66 30 -115 78 -143 138 -20 42 -21
62 -21 300 0 252 0 256 25 304 31 61 100 122 159 141 57 18 135 13 193 -13z"/>
<path d="M137 6973 c-4 -3 -7 -449 -7 -990 l0 -983 280 0 280 0 -2 988 -3 987
-271 3 c-149 1 -273 -1 -277 -5z"/>
<path d="M1230 5990 l0 -990 275 0 275 0 0 990 0 990 -275 0 -275 0 0 -990z"/>
<path d="M6315 6968 c-3 -7 -4 -449 -3 -983 l3 -970 275 0 275 0 0 980 0 980
-273 3 c-213 2 -274 0 -277 -10z"/>
<path d="M2510 4513 c-354 -28 -645 -274 -742 -628 -20 -74 -21 -102 -21 -385
0 -283 1 -311 21 -385 57 -208 177 -378 347 -491 483 -322 1142 -50 1259 518
23 111 23 605 0 716 -61 294 -276 531 -564 620 -85 26 -219 42 -300 35z m176
-581 c54 -27 102 -77 128 -132 20 -42 21 -61 21 -300 0 -239 -1 -258 -21 -300
-61 -130 -218 -195 -339 -141 -76 34 -111 66 -144 132 l-31 62 0 246 c0 226 2
250 21 291 32 72 65 106 131 140 56 28 70 31 128 27 38 -2 82 -13 106 -25z"/>
<path d="M30 4210 l0 -280 270 0 270 0 2 -707 3 -708 278 -3 277 -2 0 710 0
710 273 2 272 3 0 275 0 275 -822 3 -823 2 0 -280z"/>
<path d="M3590 3500 l0 -990 280 0 280 0 2 465 3 466 240 -465 240 -465 278
-1 277 0 0 985 0 985 -275 0 -275 0 -2 -469 -3 -468 -245 473 -245 474 -277 0
-278 0 0 -990z"/>
<path d="M5329 4442 c11 -21 135 -260 275 -531 l256 -493 0 -454 0 -454 280 0
280 0 0 451 0 451 275 531 c151 292 275 532 275 534 0 2 -116 3 -257 3 l-258
0 -155 -299 c-85 -165 -158 -297 -161 -295 -4 2 -76 137 -160 299 l-152 295
-259 0 -258 0 19 -38z"/>
<path d="M1771 2019 c-262 -51 -495 -240 -599 -485 -59 -140 -67 -199 -67
-509 0 -189 4 -303 13 -349 48 -254 228 -486 463 -596 212 -99 473 -99 686 0
215 100 362 261 438 478 41 117 47 190 43 510 l-4 297 -32 95 c-80 233 -244
413 -462 506 -41 18 -110 40 -152 48 -83 17 -253 20 -327 5z m238 -555 c64
-19 131 -77 163 -142 22 -45 23 -56 23 -302 0 -239 -1 -258 -21 -300 -82 -173
-302 -213 -434 -80 -74 73 -80 102 -80 386 l0 242 33 63 c63 122 183 173 316
133z"/>
<path d="M3821 2020 c-315 -66 -555 -296 -643 -615 -20 -73 -21 -104 -22 -375
-1 -254 2 -306 17 -374 41 -172 116 -305 241 -423 323 -307 812 -305 1139 6
112 106 199 266 231 423 22 106 23 610 1 712 -64 303 -294 550 -590 631 -70
20 -307 29 -374 15z m238 -556 c64 -19 131 -77 163 -142 22 -45 23 -56 23
-302 0 -238 -1 -258 -21 -300 -95 -205 -382 -213 -484 -14 -24 48 -25 55 -28
302 -3 249 -3 254 21 306 31 67 86 120 151 145 63 24 107 26 175 5z"/>
<path d="M135 1998 c-3 -7 -4 -449 -3 -983 l3 -970 275 0 275 0 3 983 2 982
-275 0 c-211 0 -277 -3 -280 -12z"/>
<path d="M5220 1020 l0 -990 275 0 275 0 0 990 0 990 -275 0 -275 0 0 -990z"/>
<path d="M6310 1020 l0 -990 280 0 280 0 -2 987 -3 988 -277 3 -278 2 0 -990z"/>
</g>
</svg>
