<?xml version="1.0" encoding="utf-8"?>
<!-- Generator: Adobe Illustrator 23.0.1, SVG Export Plug-In . SVG Version: 6.00 Build 0)  -->
<svg version="1.1" id="Шар_1" xmlns="http://www.w3.org/2000/svg" xmlns:xlink="http://www.w3.org/1999/xlink" x="0px" y="0px"
	 viewBox="0 0 40.1 35.4" style="enable-background:new 0 0 40.1 35.4;" xml:space="preserve">
<style type="text/css">
	.st0{fill:#242526;}
</style>
<title>Ресурс 2</title>
<g>
	<g id="Шар_1-2">
		<path class="st0" d="M39.4,13.8c-0.9-0.9-2.3-0.9-3.2,0c-0.9,0.9-0.9,2.3,0,3.2c0.9,0.9,2.3,0.9,3.1,0
			C40.3,16.1,40.3,14.6,39.4,13.8C39.4,13.8,39.4,13.8,39.4,13.8z"/>
		<path class="st0" d="M33.5,19.7c-0.9-0.9-2.3-0.9-3.2,0s-0.9,2.3,0,3.2c0.9,0.9,2.3,0.9,3.1,0C34.4,22,34.4,20.6,33.5,19.7z"/>
		<path class="st0" d="M27.6,25.6c-0.9-0.9-2.3-0.9-3.2,0s-0.9,2.3,0,3.2c0.9,0.9,2.3,0.9,3.1,0C28.4,27.9,28.4,26.5,27.6,25.6z"/>
		<path class="st0" d="M21.6,31.6c-0.9-0.9-2.3-0.9-3.2,0c-0.9,0.9-0.9,2.3,0,3.2c0.9,0.9,2.3,0.9,3.1,0
			C22.5,33.9,22.5,32.5,21.6,31.6z"/>
		<path class="st0" d="M0.6,13.8c0.9-0.9,2.3-0.9,3.2,0c0.9,0.9,0.9,2.3,0,3.2c-0.9,0.9-2.3,0.9-3.1,0C-0.2,16-0.2,14.6,0.6,13.8z"
			/>
		<path class="st0" d="M6.6,19.7c0.9-0.9,2.3-0.9,3.2,0c0.9,0.9,0.9,2.3,0,3.2c-0.9,0.9-2.3,0.9-3.1,0C5.7,22,5.7,20.6,6.6,19.7z"/>
		<path class="st0" d="M12.5,25.6c0.9-0.9,2.3-0.9,3.2,0c0.9,0.9,0.9,2.3,0,3.2c-0.9,0.9-2.3,0.9-3.1,0
			C11.7,27.9,11.7,26.5,12.5,25.6z"/>
		<path class="st0" d="M18.5,31.6c0.9-0.9,2.3-0.9,3.2,0c0.9,0.9,0.9,2.3,0,3.2c-0.9,0.9-2.3,0.9-3.1,0
			C17.6,33.9,17.6,32.5,18.5,31.6z"/>
		<path class="st0" d="M39.4,0.6c-0.9-0.9-2.3-0.9-3.2,0s-0.9,2.3,0,3.2c0.9,0.9,2.3,0.9,3.1,0C40.3,2.9,40.3,1.5,39.4,0.6
			C39.4,0.7,39.4,0.7,39.4,0.6z"/>
		<path class="st0" d="M33.5,6.6c-0.9-0.9-2.3-0.9-3.2,0s-0.9,2.3,0,3.2c0.9,0.9,2.3,0.9,3.1,0C34.4,8.9,34.4,7.5,33.5,6.6z"/>
		<path class="st0" d="M27.6,12.5c-0.9-0.9-2.3-0.9-3.2,0c-0.9,0.9-0.9,2.3,0,3.2c0.9,0.9,2.3,0.9,3.1,0
			C28.4,14.8,28.4,13.4,27.6,12.5z"/>
		<path class="st0" d="M21.6,18.5c-0.9-0.9-2.3-0.9-3.2,0s-0.9,2.3,0,3.2c0.9,0.9,2.3,0.9,3.1,0C22.5,20.8,22.5,19.3,21.6,18.5z"/>
		<path class="st0" d="M0.6,0.6c0.9-0.9,2.3-0.9,3.2,0s0.9,2.3,0,3.2c-0.9,0.9-2.3,0.9-3.1,0C-0.2,2.9-0.2,1.5,0.6,0.6z"/>
		<path class="st0" d="M6.6,6.6c0.9-0.9,2.3-0.9,3.2,0c0.9,0.9,0.9,2.3,0,3.2c-0.9,0.9-2.3,0.9-3.1,0C5.7,8.9,5.7,7.5,6.6,6.6z"/>
		<path class="st0" d="M12.5,12.5c0.9-0.9,2.3-0.9,3.2,0c0.9,0.9,0.9,2.3,0,3.2c-0.9,0.9-2.3,0.9-3.1,0
			C11.7,14.8,11.7,13.4,12.5,12.5z"/>
		<path class="st0" d="M18.5,18.5c0.9-0.9,2.3-0.9,3.2,0s0.9,2.3,0,3.2c-0.9,0.9-2.3,0.9-3.1,0C17.6,20.8,17.6,19.3,18.5,18.5z"/>
	</g>
</g>
</svg>
