<svg xmlns="http://www.w3.org/2000/svg" viewBox="0 0 40.1 35.39"><defs><style>.cls-1{fill:#fff;}</style></defs><title>Ресурс 2</title><g id="Шар_2" data-name="Шар 2"><g id="Шар_1-2" data-name="Шар 1"><path class="cls-1" d="M39.44,13.76a2.23,2.23,0,1,0,0,3.16A2.23,2.23,0,0,0,39.44,13.76Z"/><path class="cls-1" d="M33.51,19.7a2.23,2.23,0,1,0,0,3.16A2.24,2.24,0,0,0,33.51,19.7Z"/><path class="cls-1" d="M27.57,25.64a2.23,2.23,0,1,0,0,3.16A2.24,2.24,0,0,0,27.57,25.64Z"/><path class="cls-1" d="M21.63,31.58a2.23,2.23,0,1,0,0,3.16A2.24,2.24,0,0,0,21.63,31.58Z"/><path class="cls-1" d="M.65,13.76a2.23,2.23,0,1,1,0,3.16A2.24,2.24,0,0,1,.65,13.76Z"/><path class="cls-1" d="M6.59,19.7a2.23,2.23,0,1,1,0,3.16A2.24,2.24,0,0,1,6.59,19.7Z"/><path class="cls-1" d="M12.53,25.64a2.23,2.23,0,1,1,0,3.16A2.24,2.24,0,0,1,12.53,25.64Z"/><path class="cls-1" d="M18.47,31.58a2.23,2.23,0,1,1,0,3.16A2.24,2.24,0,0,1,18.47,31.58Z"/><path class="cls-1" d="M39.44.65a2.23,2.23,0,1,0,0,3.16A2.23,2.23,0,0,0,39.44.65Z"/><path class="cls-1" d="M33.51,6.59a2.23,2.23,0,1,0,0,3.16A2.24,2.24,0,0,0,33.51,6.59Z"/><path class="cls-1" d="M27.57,12.53a2.23,2.23,0,1,0,0,3.16A2.24,2.24,0,0,0,27.57,12.53Z"/><path class="cls-1" d="M21.63,18.47a2.23,2.23,0,1,0,0,3.16A2.24,2.24,0,0,0,21.63,18.47Z"/><path class="cls-1" d="M.65.65a2.23,2.23,0,1,1,0,3.16A2.24,2.24,0,0,1,.65.65Z"/><path class="cls-1" d="M6.59,6.59a2.23,2.23,0,1,1,0,3.16A2.24,2.24,0,0,1,6.59,6.59Z"/><path class="cls-1" d="M12.53,12.53a2.23,2.23,0,1,1,0,3.16A2.24,2.24,0,0,1,12.53,12.53Z"/><path class="cls-1" d="M18.47,18.47a2.23,2.23,0,1,1,0,3.16A2.24,2.24,0,0,1,18.47,18.47Z"/></g></g></svg>