<svg xmlns="http://www.w3.org/2000/svg" version="1.0" width="3000" height="2980" preserveAspectRatio="xMidYMid meet" style=""><rect id="backgroundrect" width="100%" height="100%" x="0" y="0" fill="none" stroke="none"/>


<g class="currentLayer" style=""><title>Layer 1</title><g id="layer101" fill="#ffffff" stroke="none" class="" fill-opacity="1">
 <path d="M1428 2905 l4 -75 -43 0 c-24 0 -60 -3 -80 -6 l-37 -6 -8 73 -9 74 -35 -3 c-18 -1 -36 -5 -39 -7 -9 -10 44 -328 56 -332 7 -3 24 -3 36 1 23 5 23 8 15 67 -4 34 -7 64 -5 66 2 1 38 6 80 9 l77 7 0 -67 0 -66 35 0 35 0 0 109 c0 59 -3 136 -6 170 l-7 61 -36 0 -36 0 3 -75z" id="svg_1" fill="#ffffff" fill-opacity="1"/>
 <path d="M1642 2964 c-51 -26 -76 -69 -80 -141 -5 -81 26 -141 91 -172 100 -49 203 -14 248 84 38 83 18 166 -54 219 -38 28 -157 34 -205 10z m165 -60 c39 -24 47 -97 18 -167 -4 -10 -20 -24 -36 -32 -72 -38 -147 4 -156 85 -11 108 84 170 174 114z" id="svg_2" fill="#ffffff" fill-opacity="1"/>
 <path d="M1997 2924 c-9 -28 -57 -289 -57 -305 0 -16 139 -49 201 -49 80 1 128 100 79 163 -20 26 -113 67 -150 67 -24 0 -24 0 -5 70 8 30 13 56 11 57 -2 2 -19 6 -39 10 -28 4 -36 2 -40 -13z m135 -205 c33 -14 40 -29 24 -60 -13 -25 -50 -30 -110 -15 -26 6 -27 9 -21 49 4 23 9 45 11 49 4 7 50 -4 96 -23z" id="svg_3" fill="#ffffff" fill-opacity="1"/>
 <path d="M940 2915 c-57 -18 -107 -66 -116 -110 -8 -47 -1 -55 41 -42 27 8 35 16 35 33 0 46 94 89 140 64 38 -21 22 -50 -50 -87 -80 -41 -110 -73 -110 -118 0 -25 8 -40 31 -59 60 -50 186 -25 229 47 29 47 26 67 -9 67 -23 0 -34 -8 -49 -35 -22 -36 -50 -49 -98 -43 -21 2 -30 9 -32 24 -2 17 11 28 69 59 122 64 147 113 92 175 -34 38 -103 48 -173 25z" id="svg_4" fill="#ffffff" fill-opacity="1"/>
 <path d="M1275 2335 c-77 -30 -144 -56 -150 -58 -5 -2 5 -20 24 -40 31 -33 33 -38 22 -68 -15 -43 -15 -82 1 -73 6 4 8 3 5 -3 -4 -6 16 -59 43 -118 28 -59 50 -108 50 -110 0 -2 -85 -4 -190 -6 -161 -3 -192 -7 -206 -21 -15 -15 -16 -32 -8 -164 7 -121 12 -149 26 -158 9 -5 20 -7 24 -4 3 4 10 62 14 130 l7 123 1 -128 c2 -98 5 -128 15 -125 8 3 14 43 17 134 l6 129 2 -133 c2 -102 5 -133 15 -130 8 3 14 43 17 134 l6 129 2 -133 c2 -102 5 -133 15 -130 8 3 14 43 17 134 l6 129 4 -130 c3 -77 9 -130 15 -130 6 0 12 54 15 130 l6 130 4 -130 c3 -77 9 -130 15 -130 6 0 12 54 15 130 l6 130 4 -129 c4 -91 9 -131 18 -134 9 -3 12 28 14 130 l2 133 6 -129 c3 -91 9 -131 18 -134 9 -3 12 28 14 130 l2 133 6 -129 c3 -91 9 -131 18 -134 9 -3 12 28 14 130 l2 133 6 -129 c3 -91 9 -131 18 -134 9 -3 12 28 14 130 l2 133 6 -129 c3 -91 9 -131 18 -134 9 -3 12 25 14 115 l2 118 5 -114 c4 -79 10 -116 19 -119 9 -3 13 18 14 80 l2 83 3 -75 c4 -74 16 -107 31 -83 5 8 12 8 26 -2 17 -13 13 -20 -65 -96 -95 -93 -129 -111 -191 -103 -33 4 -53 0 -87 -18 -64 -33 -85 -67 -91 -146 -5 -62 -7 -68 -40 -90 -31 -21 -43 -23 -98 -18 -51 4 -64 2 -69 -10 -9 -24 15 -34 82 -34 43 0 75 7 114 25 46 22 63 25 112 19 77 -9 102 -1 155 48 44 40 44 41 44 110 0 48 5 77 17 95 22 34 162 153 180 153 17 0 17 -33 -2 -128 -13 -60 -22 -82 -43 -100 -15 -13 -44 -39 -66 -59 -23 -23 -48 -37 -64 -38 -34 0 -42 -31 -13 -51 12 -9 21 -24 21 -35 0 -57 74 -159 114 -159 34 1 101 36 124 65 54 69 52 145 -7 241 -31 49 -31 49 -18 117 l13 69 34 -49 c62 -88 212 -273 233 -288 12 -8 32 -15 45 -15 13 0 38 -11 54 -26 17 -14 44 -28 59 -31 16 -3 31 -14 35 -25 7 -25 115 -128 157 -151 41 -22 121 -22 172 2 22 10 69 37 104 59 35 23 79 44 98 48 96 18 172 -100 111 -171 -19 -21 -35 -27 -83 -32 -33 -3 -72 -12 -86 -19 -36 -18 -54 -65 -41 -104 10 -27 2 -23 -69 42 -91 83 -124 94 -124 40 l0 -32 -58 0 c-77 0 -125 -23 -146 -69 -18 -40 -12 -40 -158 -9 -99 21 -183 -8 -183 -63 0 -26 -3 -29 -33 -29 -38 0 -69 -28 -84 -73 -8 -28 -10 -26 -32 40 -44 124 -60 143 -95 107 -15 -14 -19 -14 -50 5 -40 25 -64 26 -93 6 -20 -14 -24 -13 -49 10 -34 32 -69 41 -104 28 -23 -8 -31 -5 -66 24 -21 19 -70 50 -109 68 -87 42 -231 89 -245 80 -15 -9 -66 -113 -89 -183 -13 -39 -21 -87 -21 -131 0 -64 2 -72 25 -87 39 -25 58 -12 50 35 -8 48 13 134 54 226 30 66 31 67 63 60 87 -19 158 -77 158 -131 0 -71 -28 -89 -116 -73 -46 9 -60 8 -80 -6 -33 -22 -30 -34 14 -51 79 -32 126 -58 158 -87 120 -105 -107 -121 -298 -20 -75 39 -171 133 -203 199 -20 41 -24 122 -6 133 18 12 28 55 26 116 -2 55 -4 60 -24 58 -17 -2 -21 3 -21 26 0 39 -9 61 -25 61 -21 0 -25 -13 -16 -52 9 -40 2 -48 -45 -48 -20 0 -24 5 -24 28 0 16 -6 36 -13 46 -21 28 -38 0 -28 -46 7 -31 6 -37 -10 -41 -19 -5 -27 -37 -10 -37 5 0 12 -19 16 -42 5 -26 19 -54 39 -75 50 -53 52 -56 69 -106 21 -63 93 -163 151 -210 63 -52 197 -114 286 -133 80 -16 155 -12 201 12 68 35 44 126 -48 184 l-47 30 32 0 c48 0 94 46 101 100 6 42 7 43 23 26 12 -11 18 -33 18 -60 0 -57 43 -140 88 -171 26 -18 50 -25 82 -25 80 0 90 18 76 132 -8 69 3 88 38 65 38 -25 52 -54 66 -130 13 -71 31 -100 59 -95 11 2 17 16 19 47 l3 44 19 -31 c27 -43 64 -66 96 -58 24 6 26 10 19 44 -15 77 -13 87 20 90 l30 3 23 -98 c45 -190 110 -283 198 -283 34 0 51 6 69 25 47 46 22 121 -69 201 l-54 49 30 1 c72 3 107 100 59 165 -14 19 -17 29 -9 29 30 -2 68 -28 100 -70 57 -76 145 -90 202 -33 56 56 13 123 -93 144 -50 9 -59 14 -50 25 15 18 139 19 160 2 8 -7 35 -39 58 -70 32 -43 50 -58 68 -58 31 0 40 26 19 60 -23 39 -20 45 9 21 38 -29 81 -36 110 -17 32 21 31 28 -5 69 -16 19 -30 44 -30 55 0 23 11 27 85 38 63 9 120 60 130 118 21 112 -88 223 -198 202 -19 -3 -76 -32 -127 -63 -112 -67 -168 -78 -222 -45 -19 12 -40 34 -47 49 -7 15 -19 41 -27 56 -13 27 -12 31 11 59 14 16 28 40 31 53 9 36 -13 91 -49 121 -26 22 -42 54 -82 168 l-50 141 5 140 5 140 5 -129 c3 -91 9 -131 18 -134 9 -3 12 28 14 130 l2 133 6 -129 c3 -91 9 -131 18 -134 9 -3 12 28 14 130 l2 133 6 -129 c3 -91 9 -131 18 -134 6 -2 12 2 12 8 0 9 4 9 16 -1 13 -10 17 -10 24 0 4 8 10 9 14 3 3 -5 20 -9 38 -8 l33 2 5 124 6 125 2 -127 c2 -131 6 -141 42 -118 12 7 16 40 18 163 3 142 2 155 -15 163 -10 4 -118 10 -240 12 -123 2 -223 5 -223 6 0 1 47 86 103 187 101 181 124 229 107 229 -5 0 -25 -19 -45 -42 l-37 -43 21 42 c25 49 26 63 7 63 -8 0 -61 -69 -118 -154 l-105 -155 -35 62 c-54 94 -60 108 -72 162 -11 48 -15 52 -101 112 -50 34 -99 62 -110 62 -11 -1 -83 -25 -160 -54z m228 -57 c12 -6 27 -16 32 -23 6 -6 26 -23 46 -38 21 -15 39 -38 42 -54 3 -15 31 -70 62 -122 82 -137 140 -256 202 -415 85 -220 164 -447 160 -460 -3 -6 -8 -2 -12 9 -74 194 -184 454 -245 580 -83 168 -259 471 -287 493 -30 22 -77 12 -278 -63 -18 -7 -19 -7 -4 9 15 16 218 94 247 95 7 1 23 -4 35 -11z m-58 -188 c12 -24 13 -31 3 -35 -43 -16 -163 -55 -168 -55 -4 0 -12 11 -18 25 -10 23 -9 27 11 35 17 8 144 56 154 59 1 1 10 -13 18 -29z m462 -397 c-2 -16 -4 -3 -4 27 0 30 2 43 4 28 2 -16 2 -40 0 -55z m40 -75 c-2 -29 -3 -6 -3 52 0 58 1 81 3 53 2 -29 2 -77 0 -105z m-740 -358 c83 -50 29 -180 -76 -180 -101 0 -115 143 -18 185 43 19 56 18 94 -5z m324 -129 c25 -25 29 -37 29 -81 0 -44 -4 -56 -29 -81 -42 -41 -90 -40 -126 3 -24 28 -27 39 -22 82 3 40 11 55 36 78 40 36 75 36 112 -1z m577 -14 c10 -22 10 -32 -2 -62 -18 -42 -28 -44 -50 -10 -15 23 -15 28 -1 47 8 13 15 31 15 41 0 26 22 16 38 -16z m-858 -621 c16 -21 30 -166 15 -166 -42 0 -87 127 -61 169 10 15 31 14 46 -3z m615 -12 c20 -8 55 -76 55 -108 0 -39 -52 -49 -91 -17 -27 21 -54 117 -35 125 17 7 52 7 71 0z m346 -34 c21 -12 26 -46 7 -53 -27 -9 -87 28 -88 56 0 11 58 9 81 -3z m-296 -290 c18 -25 37 -58 41 -74 6 -25 4 -27 -17 -24 -27 3 -66 63 -99 148 l-22 55 32 -30 c17 -16 47 -50 65 -75z" id="svg_5" fill="#ffffff" fill-opacity="1"/>
 <path d="M336 2288 c-63 -114 -116 -256 -128 -347 -3 -23 -6 -23 -103 -25 -96 -1 -100 -2 -103 -23 l-3 -23 226 0 226 0 -3 23 c-3 21 -7 22 -95 22 -87 0 -92 1 -88 20 2 11 9 47 15 80 13 71 64 233 91 289 22 46 22 46 9 46 -5 0 -25 -28 -44 -62z" id="svg_6" fill="#ffffff" fill-opacity="1"/>
 <path d="M2672 2268 c32 -80 74 -230 84 -305 l6 -48 -104 0 c-99 0 -103 -1 -106 -22 l-3 -23 225 0 226 0 0 26 0 25 -88 -3 -88 -3 -22 96 c-15 64 -41 133 -80 210 -65 129 -96 158 -50 47z" id="svg_7" fill="#ffffff" fill-opacity="1"/>
 <path d="M0 1710 l0 -100 41 0 c32 0 42 4 46 19 5 19 5 19 25 -1 28 -28 72 -21 76 13 3 23 0 26 -22 22 -33 -7 -33 10 -1 31 33 21 42 59 21 90 -14 23 -22 25 -101 25 l-85 0 0 -99z m122 11 c-18 -16 -32 -36 -32 -45 0 -10 -9 -16 -25 -16 -16 0 -25 6 -25 15 0 8 9 15 20 15 13 0 20 7 20 20 0 13 -7 20 -20 20 -12 0 -20 7 -20 16 0 13 7 15 33 11 19 -3 40 -1 48 3 31 19 31 -10 1 -39z" id="svg_8" fill="#ffffff" fill-opacity="1"/>
 <path d="M230 1735 c0 -60 -3 -75 -15 -75 -9 0 -15 -10 -15 -26 l0 -25 104 3 c130 4 146 14 146 95 0 70 -29 103 -90 103 l-40 0 -1 -87 c0 -49 -3 -82 -6 -75 -2 6 -11 12 -19 12 -11 0 -14 17 -14 75 0 73 -1 75 -25 75 -24 0 -25 -2 -25 -75z m168 13 c26 -26 8 -88 -25 -88 -9 0 -13 16 -13 50 0 51 12 64 38 38z" id="svg_9" fill="#ffffff" fill-opacity="1"/>
 <path d="M2580 1745 c0 -51 -3 -65 -15 -65 -24 0 -17 -36 10 -54 13 -9 29 -16 35 -16 6 0 10 38 10 100 0 93 -1 100 -20 100 -18 0 -20 -7 -20 -65z" id="svg_10" fill="#ffffff" fill-opacity="1"/>
 <path d="M2660 1786 c0 -21 5 -24 26 -23 15 1 29 -4 31 -10 3 -8 -4 -13 -16 -13 -22 0 -51 -35 -51 -62 0 -9 10 -29 23 -44 49 -56 105 -1 94 92 -6 57 -30 84 -74 84 -28 0 -33 -3 -33 -24z m60 -106 c0 -11 -4 -20 -10 -20 -5 0 -10 9 -10 20 0 11 5 20 10 20 6 0 10 -9 10 -20z" id="svg_11" fill="#ffffff" fill-opacity="1"/>
 <path d="M2787 1803 c-4 -3 -7 -14 -7 -24 0 -13 7 -17 26 -16 15 1 29 -4 31 -10 3 -8 -3 -13 -14 -13 -29 0 -43 -20 -43 -60 0 -47 28 -75 65 -66 48 12 63 120 24 170 -20 25 -66 36 -82 19z m56 -109 c8 -8 -3 -34 -14 -34 -5 0 -9 9 -9 20 0 19 11 26 23 14z" id="svg_12" fill="#ffffff" fill-opacity="1"/>
 <path d="M2907 1803 c-4 -3 -7 -15 -7 -25 0 -14 6 -18 28 -16 34 4 38 -25 5 -30 -30 -4 -31 -39 -1 -44 12 -2 23 -9 26 -17 3 -10 -3 -12 -27 -9 -27 4 -31 2 -31 -18 0 -26 29 -39 66 -30 28 7 43 50 26 77 -8 12 -8 20 -2 24 18 11 11 74 -9 85 -22 11 -64 13 -74 3z" id="svg_13" fill="#ffffff" fill-opacity="1"/>
 <path d="M0 1535 l0 -25 103 0 103 0 17 -71 c31 -127 139 -359 167 -359 12 0 13 13 1 26 -25 26 -100 261 -116 362 l-7 42 91 0 c90 0 91 0 91 25 l0 25 -225 0 -225 0 0 -25z" id="svg_14" fill="#ffffff" fill-opacity="1"/>
 <path d="M2550 1535 l0 -25 105 0 106 0 -7 -37 c-17 -96 -56 -231 -88 -306 -35 -79 -39 -111 -9 -72 37 50 124 248 144 328 l21 87 89 0 c88 0 89 0 89 25 l0 25 -225 0 -225 0 0 -25z" id="svg_15" fill="#ffffff" fill-opacity="1"/>
 </g></g></svg>