<svg width="168" height="36" viewBox="0 0 168 36" fill="none" xmlns="http://www.w3.org/2000/svg">
<path d="M19.4601 12.1792C20.0171 11.9579 20.5737 11.7408 21.1678 11.6305C22.5343 11.3771 24.1749 11.6732 25.2889 12.3988C25.2952 12.5739 25.2341 12.7326 25.1292 12.8803C23.2682 15.501 20.7895 17.2121 17.6896 18.0053C16.4018 18.3349 15.0908 18.4399 13.7688 18.3534C11.9371 18.2335 10.2075 17.731 8.58637 16.8598C8.45215 16.7875 8.32501 16.6993 8.20139 16.6092C5.76436 14.8266 3.32803 13.0423 0.891709 11.2579C0.845087 11.2237 0.799879 11.1871 0.699219 11.1095C0.869105 11.0493 0.993075 11.0027 1.11881 10.9618C4.78743 9.76816 8.45675 8.57633 12.125 7.382C18.7576 5.22288 25.3895 3.06305 32.0214 0.903577C32.7818 0.655885 33.5419 0.40677 34.3016 0.156943C34.385 0.12954 34.5015 0.139505 34.4984 0C34.569 0 34.6396 0 34.7103 0C34.7152 0.154096 34.7244 0.307835 34.7248 0.461931C34.7293 2.47834 34.7325 4.49511 34.7361 6.51152C34.7534 16.2028 34.7707 25.8941 34.788 35.5858C34.7883 35.7043 34.7919 35.8238 34.7756 35.9402C34.7721 35.9658 34.6901 35.9804 34.6442 36C33.9831 35.5075 33.3251 35.011 32.6607 34.5227C31.1494 33.4124 29.6423 32.296 28.1197 31.201C26.8531 30.2903 25.8571 29.1347 25.0377 27.8176C24.0555 26.239 23.4374 24.5179 23.2146 22.6706C22.8003 19.2381 23.5978 16.1089 25.6216 13.3074C25.7137 13.18 25.8423 13.0793 25.9733 12.9462C27.6863 14.4537 28.3743 16.3096 28.1649 18.6039C29.0553 17.4327 29.4307 16.1722 29.3287 14.7764C29.2262 13.375 28.6495 12.1803 27.6507 11.1871C28.0702 10.428 28.3376 9.63898 28.38 8.78238C28.3832 8.75498 28.3864 8.72793 28.3899 8.70053C28.3736 8.71441 28.3574 8.72829 28.3411 8.74217C27.7545 8.95463 27.2784 9.33506 26.8277 9.75357C26.6815 9.88952 26.5356 10.0258 26.3636 10.186C26.2866 10.1543 26.18 10.1112 26.0737 10.0671C23.7588 9.10196 21.0908 9.82938 19.5957 11.8351C19.5262 11.9287 19.4728 12.0344 19.4124 12.1348C19.4114 12.1632 19.41 12.1913 19.4082 12.2198C19.4262 12.2066 19.4432 12.1931 19.4601 12.1792Z" fill="white"/>
<path d="M167.299 25.979C167.217 26.1563 167.151 26.3434 167.05 26.5089C166.808 26.9064 166.453 27.1879 166.024 27.342C164.451 27.9061 162.95 27.7424 161.531 26.852C161.502 26.8335 161.473 26.8125 161.425 26.7794C161.608 26.4801 161.778 26.2007 161.949 25.9203C162.002 25.937 162.038 25.9402 162.065 25.9587C162.979 26.6015 163.995 26.7299 165.064 26.5424C165.3 26.5007 165.544 26.4029 165.744 26.2691C166.288 25.9054 166.248 25.1701 165.661 24.8897C165.37 24.7509 165.036 24.6907 164.715 24.6292C164.254 24.5409 163.784 24.4975 163.324 24.4078C163.108 24.3658 162.894 24.2793 162.695 24.1811C161.572 23.6263 161.331 22.153 162.21 21.2497C162.662 20.7853 163.239 20.5839 163.856 20.5184C164.831 20.4152 165.782 20.5362 166.682 20.9554C166.788 21.0049 166.889 21.0661 166.991 21.1255C167.041 21.1547 167.085 21.1921 167.156 21.2426C166.993 21.5373 166.836 21.8234 166.665 22.133C166.569 22.0857 166.489 22.0466 166.409 22.0074C165.63 21.6288 164.818 21.4159 163.951 21.5697C163.716 21.6113 163.47 21.7078 163.275 21.8451C162.723 22.2345 162.796 22.9886 163.422 23.2306C163.79 23.3726 164.197 23.4106 164.588 23.4868C164.968 23.5608 165.351 23.6213 165.732 23.6921C165.812 23.7071 165.89 23.7384 165.968 23.7647C166.615 23.9808 167.097 24.3715 167.299 25.0545C167.299 25.3623 167.299 25.6705 167.299 25.979Z" fill="white"/>
<path d="M57.5793 27.2759C56.6084 27.2759 55.6368 27.2759 54.6401 27.2759C54.6401 26.7656 54.6401 26.2727 54.6401 25.7182C54.5648 25.7769 54.5299 25.7954 54.5059 25.8239C53.394 27.1336 51.9523 27.6688 50.2767 27.6478C46.961 27.6062 44.3516 25.2688 43.7494 22.0388C43.3796 20.0558 43.6102 18.1476 44.6995 16.4287C46.1271 14.176 48.2162 13.1511 50.8595 13.2941C52.3302 13.3739 53.5547 13.9828 54.5133 15.1191C54.5341 15.1436 54.5624 15.1618 54.6224 15.2127C54.6224 14.6771 54.6224 14.1749 54.6224 13.682C54.8965 13.6041 57.0464 13.5842 57.5797 13.6493C57.5793 18.1832 57.5793 22.7196 57.5793 27.2759ZM46.4294 20.4274C46.4188 21.3245 46.6109 22.1747 47.0803 22.9381C47.9803 24.4008 49.3348 24.978 50.9898 24.8104C52.6279 24.6445 53.7377 23.7217 54.3204 22.1783C54.609 21.4142 54.6683 20.6156 54.573 19.7989C54.372 18.0804 53.2259 16.3889 51.1216 16.123C49.5633 15.9262 48.2307 16.381 47.2704 17.6914C46.6777 18.4992 46.4361 19.4302 46.4294 20.4274Z" fill="white"/>
<path d="M85.7178 21.5599C85.9177 23.2137 86.9663 24.5411 88.6175 24.913C90.0162 25.2279 91.3269 24.9422 92.5754 24.2945C92.9395 24.1055 93.2782 23.8678 93.6675 23.6283C94.1386 24.3069 94.62 25.0002 95.1141 25.7116C95.0304 25.7877 94.9584 25.8603 94.8793 25.924C93.7363 26.839 92.4348 27.3703 90.9903 27.5554C89.8011 27.7077 88.6154 27.7109 87.4548 27.3764C85.3042 26.7561 83.8014 25.3927 83.071 23.2599C82.3134 21.0478 82.3981 18.8403 83.4563 16.736C84.4142 14.8306 86.0014 13.7391 88.0824 13.3772C89.3236 13.1612 90.5488 13.2316 91.7281 13.6964C93.5329 14.4074 94.6779 15.7562 95.314 17.5698C95.7569 18.8332 95.8346 20.1396 95.7252 21.4642C95.7234 21.4852 95.7057 21.5051 95.6782 21.5606C92.3709 21.5599 89.0463 21.5599 85.7178 21.5599ZM92.7135 19.2762C92.5563 17.1598 91.0528 15.8352 88.9661 15.9374C87.2288 16.0228 85.7107 17.5954 85.7514 19.2762C88.0658 19.2762 90.3803 19.2762 92.7135 19.2762Z" fill="white"/>
<path d="M79.3808 23.9286C79.7753 24.7301 80.156 25.5027 80.5449 26.292C79.7855 26.8116 78.9887 27.2006 78.1149 27.4287C77.0836 27.6981 76.0413 27.7301 75.0015 27.5198C73.2426 27.1639 72.1693 26.0707 71.7327 24.3304C71.5795 23.719 71.5127 23.0948 71.5127 22.4638C71.5131 20.5542 71.512 18.6449 71.5116 16.7353C71.5116 16.6185 71.5116 16.5014 71.5116 16.3495C70.6142 16.3495 69.7383 16.3495 68.8369 16.3495C68.8369 15.4324 68.8369 14.5505 68.8369 13.6355C69.7075 13.6355 70.5845 13.6355 71.4933 13.6355C71.4933 12.2455 71.4933 10.8878 71.4933 9.50415C72.4949 9.50415 73.4644 9.50415 74.4693 9.50415C74.4693 10.8551 74.4693 12.2117 74.4693 13.6042C76.2148 13.6042 77.9263 13.6042 79.6633 13.6042C79.6633 14.5224 79.6633 15.4046 79.6633 16.3217C77.9571 16.3217 76.243 16.3217 74.5071 16.3217C74.4975 16.4449 74.4845 16.5353 74.4845 16.626C74.4834 18.5001 74.476 20.3738 74.4905 22.2478C74.4933 22.6229 74.5396 23.0083 74.6356 23.3703C74.8751 24.2735 75.5652 24.798 76.4927 24.8368C77.2041 24.8667 77.8652 24.6678 78.5038 24.3795C78.7917 24.2493 79.0664 24.0913 79.3808 23.9286Z" fill="white"/>
<path d="M62.5444 27.2699C62.5444 20.4328 62.5444 13.6149 62.5444 6.77344C63.5196 6.77344 64.4902 6.77344 65.4841 6.77344C65.4841 13.5921 65.4841 20.4182 65.4841 27.2699C64.5205 27.2699 63.5503 27.2699 62.5444 27.2699Z" fill="white"/>
<path d="M108.873 13.6633C108.638 14.6438 108.407 15.6061 108.169 16.5954C107.549 16.3182 106.926 16.1748 106.28 16.1217C104.504 15.9751 103.16 16.947 102.809 18.6887C102.723 19.115 102.688 19.5585 102.686 19.994C102.674 22.2823 102.68 24.571 102.68 26.8597C102.68 26.9892 102.68 27.1184 102.68 27.2721C101.692 27.2721 100.724 27.2721 99.7383 27.2721C99.7383 22.7247 99.7383 18.1905 99.7383 13.637C100.714 13.637 101.672 13.637 102.664 13.637C102.664 14.121 102.664 14.5865 102.664 15.0929C102.73 15.0384 102.759 15.0221 102.778 14.9979C103.502 14.0441 104.476 13.5167 105.638 13.3402C106.627 13.1904 107.609 13.243 108.571 13.5398C108.669 13.5704 108.762 13.6174 108.873 13.6633Z" fill="white"/>
<path d="M159.716 24.4915C157.954 24.4915 156.183 24.4915 154.41 24.4915C154.501 25.8699 155.613 26.7976 157.112 26.5919C157.658 26.5172 158.152 26.3065 158.596 25.9756C158.661 25.9272 158.728 25.8816 158.821 25.8151C159.022 26.0713 159.216 26.3186 159.438 26.6012C159.329 26.7008 159.235 26.8008 159.128 26.882C158.22 27.5663 157.19 27.7528 156.088 27.6162C155.223 27.509 154.498 27.1254 153.943 26.4418C152.86 25.1058 152.903 22.8346 154.047 21.5744C154.959 20.5698 156.113 20.2783 157.392 20.5904C158.646 20.8965 159.346 21.7954 159.66 23.0207C159.81 23.6072 159.82 24.0891 159.716 24.4915ZM158.526 23.5172C158.579 22.4449 157.623 21.5075 156.517 21.5239C155.382 21.5406 154.386 22.5004 154.461 23.5172C155.815 23.5172 157.171 23.5172 158.526 23.5172Z" fill="white"/>
<path d="M125.461 24.4978C123.66 24.4978 121.899 24.4978 120.138 24.4978C120.143 25.4704 120.858 26.3398 121.81 26.548C122.702 26.7434 123.509 26.5295 124.253 26.0202C124.339 25.9608 124.423 25.896 124.539 25.811C124.743 26.075 124.942 26.3312 125.149 26.5999C124.88 26.9053 124.564 27.1085 124.224 27.2651C123.257 27.7092 122.248 27.8042 121.233 27.4886C119.85 27.0587 119.114 26.053 118.925 24.6387C118.813 23.8031 118.912 22.9838 119.314 22.2219C119.942 21.0311 121.201 20.303 122.789 20.5158C124.112 20.6931 125.129 21.7372 125.406 23.1483C125.492 23.5792 125.519 24.0113 125.461 24.4978ZM124.266 23.5241C124.21 22.3404 123.272 21.4625 122.18 21.5269C121.047 21.5938 120.097 22.5337 120.17 23.5241C121.529 23.5241 122.888 23.5241 124.266 23.5241Z" fill="white"/>
<path d="M111.348 26.7547C111.527 26.4661 111.699 26.1888 111.881 25.896C112.283 26.1778 112.686 26.3892 113.14 26.4953C113.755 26.6387 114.375 26.6778 114.993 26.5412C115.218 26.4913 115.449 26.4063 115.641 26.2803C116.204 25.9109 116.164 25.1668 115.556 24.8838C115.264 24.7475 114.931 24.6892 114.61 24.628C114.16 24.5422 113.702 24.5009 113.253 24.4116C113.026 24.3664 112.803 24.2746 112.592 24.1731C111.234 23.5194 111.438 21.9055 112.13 21.2375C112.596 20.788 113.164 20.5813 113.782 20.5172C114.733 20.4186 115.661 20.5336 116.541 20.9325C116.71 21.009 116.868 21.1104 117.064 21.2183C116.973 21.3944 116.897 21.5489 116.815 21.7005C116.737 21.8443 116.654 21.9852 116.598 22.0841C116.085 21.9137 115.616 21.7297 115.131 21.6048C114.71 21.4966 114.27 21.4585 113.838 21.5692C113.636 21.6211 113.429 21.6895 113.25 21.7948C112.941 21.9767 112.794 22.2656 112.833 22.6333C112.869 22.9721 113.094 23.1713 113.387 23.2578C113.745 23.3635 114.12 23.4173 114.488 23.4867C114.88 23.5607 115.278 23.6105 115.665 23.7023C115.891 23.7557 116.113 23.8511 116.319 23.9621C117.318 24.5034 117.559 25.8202 116.827 26.6988C116.515 27.075 116.114 27.3241 115.653 27.4511C114.201 27.8526 112.814 27.6999 111.514 26.9024C111.484 26.8839 111.455 26.8632 111.428 26.8408C111.411 26.8259 111.396 26.8066 111.348 26.7547Z" fill="white"/>
<path d="M151.699 21.5791C151.452 21.8407 151.218 22.088 150.968 22.3538C150.869 22.2795 150.778 22.2125 150.689 22.1424C149.899 21.52 148.797 21.4253 147.973 21.9079C147.098 22.42 146.725 23.4304 146.841 24.3774C146.96 25.3582 147.437 26.0959 148.402 26.4229C149.238 26.7059 150.001 26.5069 150.699 25.9987C150.793 25.9308 150.881 25.8564 150.992 25.7688C151.228 26.035 151.454 26.2884 151.676 26.5386C151.214 27.3084 149.699 27.9333 148.184 27.5411C146.743 27.1678 145.731 25.9304 145.624 24.3752C145.512 22.7371 146.322 21.33 147.708 20.7577C149.03 20.2121 150.792 20.4581 151.699 21.5791Z" fill="white"/>
<path d="M139.185 20.6445C139.605 20.6445 139.989 20.6445 140.419 20.6445C140.368 20.7815 140.333 20.8912 140.289 20.9972C139.427 23.0741 138.56 25.1485 137.707 27.229C137.609 27.4678 137.485 27.5553 137.237 27.5343C136.991 27.5137 136.742 27.5158 136.496 27.534C136.274 27.5504 136.161 27.4682 136.077 27.2593C135.76 26.4685 135.424 25.6852 135.096 24.8987C134.545 23.577 133.994 22.2552 133.444 20.9332C133.409 20.8477 133.38 20.7595 133.339 20.647C133.769 20.647 134.175 20.647 134.606 20.647C135.358 22.5093 136.111 24.3727 136.892 26.3073C137.671 24.3827 138.424 22.5236 139.185 20.6445Z" fill="white"/>
<path d="M128.939 27.5052C128.534 27.5052 128.173 27.5052 127.814 27.5052C127.739 27.2586 127.717 21.1172 127.792 20.6492C128.157 20.6492 128.525 20.6492 128.931 20.6492C128.931 20.9101 128.931 21.151 128.931 21.4823C129.851 20.4004 130.929 20.3061 132.168 20.6826C132.076 21.0795 131.99 21.4517 131.902 21.8311C131.613 21.761 131.357 21.677 131.095 21.6393C129.619 21.4257 128.984 22.4677 128.949 23.4852C128.919 24.361 128.94 25.2386 128.939 26.1155C128.938 26.5646 128.939 27.0141 128.939 27.5052Z" fill="white"/>
<path d="M142.2 20.6406C142.585 20.6406 142.947 20.6406 143.333 20.6406C143.333 22.9254 143.333 25.1973 143.333 27.4963C142.966 27.4963 142.596 27.4963 142.2 27.4963C142.2 25.2233 142.2 22.9531 142.2 20.6406Z" fill="white"/>
<path d="M141.938 18.1631C141.952 17.6905 142.312 17.347 142.782 17.3566C143.251 17.3663 143.628 17.768 143.605 18.2346C143.584 18.6923 143.208 19.0271 142.73 19.015C142.257 19.0029 141.923 18.6442 141.938 18.1631Z" fill="white"/>
<path d="M28.3423 8.74281C28.3585 8.72893 28.3748 8.71505 28.391 8.70117C28.3878 8.72857 28.3843 8.75562 28.3811 8.78302C28.3681 8.76986 28.355 8.75633 28.3423 8.74281Z" fill="white"/>
<path d="M19.4599 12.1793C19.443 12.1932 19.426 12.2067 19.4087 12.2206C19.4101 12.1921 19.4115 12.164 19.4129 12.1355C19.4299 12.1483 19.4458 12.1629 19.4599 12.1793Z" fill="white"/>
</svg>
