<svg width="360" height="78" viewBox="0 0 360 78" fill="none" xmlns="http://www.w3.org/2000/svg">
<path d="M40.5398 26.3884C41.7433 25.9088 42.9461 25.4384 44.2298 25.1994C47.1827 24.6504 50.7277 25.2919 53.1349 26.8641C53.1486 27.2435 53.0166 27.5874 52.7899 27.9074C48.7686 33.5855 43.4124 37.2929 36.7138 39.0116C33.9312 39.7256 31.0982 39.953 28.2415 39.7657C24.2836 39.5058 20.5462 38.4171 17.0431 36.5295C16.753 36.373 16.4783 36.1817 16.2112 35.9867C10.9451 32.1244 5.68051 28.2582 0.415945 24.3921C0.315202 24.318 0.217513 24.2386 0 24.0705C0.3671 23.9402 0.634984 23.8392 0.906684 23.7505C8.83406 21.1644 16.763 18.582 24.6896 15.9943C39.0217 11.3162 53.3524 6.63661 67.683 1.95775C69.3262 1.42108 70.9686 0.881334 72.6103 0.340042C72.7904 0.28067 73.0422 0.30226 73.0354 0C73.188 0 73.3406 0 73.4933 0C73.504 0.333874 73.5238 0.666976 73.5246 1.00085C73.5345 5.36974 73.5414 9.7394 73.549 14.1083C73.5864 35.1061 73.6238 56.1039 73.6612 77.1025C73.6619 77.3592 73.6696 77.6183 73.6345 77.8705C73.6268 77.926 73.4498 77.9576 73.3506 78C71.9218 76.9328 70.5 75.8572 69.0644 74.7993C65.7987 72.3935 62.5421 69.9747 59.2519 67.6021C56.5151 65.6289 54.3629 63.1253 52.5922 60.2715C50.4698 56.8511 49.1342 53.1222 48.6526 49.1195C47.7574 41.6826 49.4807 34.9025 53.8538 28.8327C54.053 28.5566 54.3308 28.3384 54.614 28.05C58.3155 31.3163 59.8022 35.3374 59.3496 40.3085C61.2737 37.7709 62.0849 35.0398 61.8644 32.0156C61.643 28.9792 60.3967 26.3907 58.2384 24.2386C59.1451 22.5939 59.7228 20.8845 59.8144 19.0285C59.8213 18.9691 59.8281 18.9105 59.8358 18.8511C59.8007 18.8812 59.7656 18.9113 59.7305 18.9414C58.4628 19.4017 57.434 20.226 56.4601 21.1327C56.1442 21.4273 55.829 21.7226 55.4573 22.0696C55.2909 22.001 55.0604 21.9077 54.8307 21.8121C49.8287 19.7209 44.0635 21.297 40.8328 25.6427C40.6825 25.8455 40.5672 26.0745 40.4367 26.292C40.4344 26.3537 40.4314 26.4146 40.4276 26.4763C40.4665 26.4477 40.5031 26.4184 40.5398 26.3884Z" fill="#5124EA"/>
<path d="M360 56.2881C359.823 56.6721 359.679 57.0777 359.462 57.4363C358.938 58.2975 358.172 58.9075 357.243 59.2413C353.846 60.4635 350.603 60.1088 347.536 58.1796C347.472 58.1395 347.411 58.094 347.307 58.0223C347.702 57.3738 348.07 56.7685 348.44 56.1609C348.553 56.1971 348.632 56.2041 348.689 56.2442C350.664 57.6367 352.86 57.9151 355.17 57.5087C355.68 57.4185 356.208 57.2065 356.639 56.9166C357.815 56.1285 357.729 54.5355 356.459 53.9279C355.831 53.6272 355.11 53.4969 354.416 53.3635C353.42 53.1722 352.405 53.0782 351.409 52.8839C350.942 52.7929 350.481 52.6055 350.051 52.3927C347.624 51.1906 347.104 47.9983 349.003 46.0414C349.979 45.0351 351.225 44.5987 352.56 44.4568C354.667 44.2332 356.721 44.4954 358.665 45.4037C358.895 45.5109 359.114 45.6435 359.334 45.7723C359.441 45.8355 359.538 45.9165 359.689 46.0259C359.338 46.6644 358.998 47.2843 358.63 47.9552C358.422 47.8526 358.249 47.7678 358.076 47.683C356.394 46.8626 354.638 46.4015 352.766 46.7346C352.257 46.8248 351.725 47.0337 351.304 47.3314C350.11 48.1749 350.27 49.8088 351.622 50.3332C352.416 50.6408 353.296 50.7233 354.141 50.8883C354.963 51.0487 355.79 51.1798 356.613 51.3332C356.786 51.3656 356.954 51.4335 357.123 51.4905C358.522 51.9586 359.562 52.8052 360 54.2849C360 54.9519 360 55.6196 360 56.2881Z" fill="#5124EA"/>
<path d="M122.911 59.0979C120.813 59.0979 118.713 59.0979 116.559 59.0979C116.559 57.9922 116.559 56.9243 116.559 55.7229C116.397 55.8502 116.321 55.8903 116.269 55.9519C113.867 58.7895 110.751 59.9492 107.131 59.9037C99.9658 59.8135 94.3273 54.7491 93.026 47.7508C92.2269 43.4544 92.7253 39.3199 95.079 35.5957C98.1639 30.7148 102.678 28.4941 108.39 28.8041C111.568 28.9768 114.214 30.2961 116.285 32.7581C116.33 32.8113 116.391 32.8507 116.521 32.9609C116.521 31.8005 116.521 30.7125 116.521 29.6445C117.113 29.4757 121.759 29.4325 122.911 29.5736C122.911 39.3971 122.911 49.2259 122.911 59.0979ZM98.8172 44.2594C98.7943 46.2033 99.2094 48.0454 100.224 49.6993C102.168 52.8684 105.095 54.1191 108.672 53.7559C112.211 53.3966 114.609 51.3972 115.869 48.0531C116.492 46.3976 116.62 44.6673 116.414 42.8977C115.98 39.1742 113.503 35.5093 108.956 34.9333C105.589 34.5069 102.709 35.4923 100.634 38.3314C99.3537 40.0818 98.8317 42.0989 98.8172 44.2594Z" fill="#5124EA"/>
<path d="M183.713 46.713C184.145 50.2962 186.411 53.1723 189.979 53.9781C193.002 54.6605 195.834 54.0413 198.532 52.638C199.319 52.2285 200.05 51.7134 200.892 51.1945C201.91 52.6649 202.95 54.167 204.018 55.7084C203.837 55.8734 203.681 56.0307 203.51 56.1687C201.04 58.1511 198.228 59.3023 195.106 59.7033C192.537 60.0333 189.975 60.0402 187.467 59.3154C182.82 57.9715 179.572 55.0175 177.994 50.3965C176.357 45.6035 176.54 40.8205 178.827 36.2612C180.896 32.1329 184.326 29.768 188.823 28.9838C191.505 28.5158 194.152 28.6684 196.701 29.6755C200.601 31.2161 203.075 34.1384 204.45 38.0678C205.407 40.8051 205.575 43.6357 205.338 46.5056C205.334 46.5511 205.296 46.5943 205.236 46.7146C198.09 46.713 190.906 46.713 183.713 46.713ZM198.83 41.7651C198.49 37.1795 195.242 34.3096 190.733 34.5309C186.978 34.7159 183.698 38.1233 183.786 41.7651C188.787 41.7651 193.788 41.7651 198.83 41.7651Z" fill="#5124EA"/>
<path d="M170.02 51.8452C170.873 53.5817 171.695 55.2557 172.536 56.9659C170.895 58.0917 169.173 58.9344 167.285 59.4287C165.056 60.0124 162.804 60.0818 160.557 59.6261C156.756 58.855 154.437 56.4863 153.494 52.7158C153.162 51.3911 153.018 50.0386 153.018 48.6715C153.019 44.5339 153.017 40.3971 153.016 36.2596C153.016 36.0066 153.016 35.753 153.016 35.4237C151.077 35.4237 149.184 35.4237 147.236 35.4237C147.236 33.4367 147.236 31.526 147.236 29.5435C149.117 29.5435 151.013 29.5435 152.976 29.5435C152.976 26.5317 152.976 23.5901 152.976 20.5922C155.141 20.5922 157.236 20.5922 159.407 20.5922C159.407 23.5191 159.407 26.4585 159.407 29.4757C163.179 29.4757 166.877 29.4757 170.631 29.4757C170.631 31.465 170.631 33.3765 170.631 35.3636C166.944 35.3636 163.24 35.3636 159.489 35.3636C159.468 35.6304 159.44 35.8262 159.44 36.0228C159.438 40.0833 159.421 44.143 159.453 48.2035C159.459 49.0162 159.559 49.8512 159.766 50.6354C160.284 52.5924 161.775 53.7289 163.779 53.813C165.316 53.8778 166.745 53.4467 168.125 52.8222C168.747 52.54 169.341 52.1976 170.02 51.8452Z" fill="#5124EA"/>
<path d="M133.639 59.0848C133.639 44.271 133.639 29.4989 133.639 14.6758C135.746 14.6758 137.843 14.6758 139.991 14.6758C139.991 29.4495 139.991 44.2394 139.991 59.0848C137.909 59.0848 135.813 59.0848 133.639 59.0848Z" fill="#5124EA"/>
<path d="M233.75 29.6037C233.241 31.728 232.742 33.813 232.229 35.9566C230.888 35.3559 229.543 35.0452 228.147 34.9303C224.307 34.6126 221.405 36.7184 220.646 40.492C220.459 41.4158 220.385 42.3765 220.38 43.3203C220.355 48.2783 220.368 53.2371 220.368 58.1958C220.368 58.4765 220.368 58.7564 220.368 59.0895C218.233 59.0895 216.141 59.0895 214.01 59.0895C214.01 49.2367 214.01 39.4125 214.01 29.5467C216.118 29.5467 218.188 29.5467 220.333 29.5467C220.333 30.5953 220.333 31.6039 220.333 32.7011C220.475 32.5831 220.538 32.5477 220.578 32.4952C222.144 30.4288 224.249 29.286 226.76 28.9036C228.895 28.579 231.018 28.6931 233.096 29.3362C233.308 29.4025 233.509 29.5043 233.75 29.6037Z" fill="#5124EA"/>
<path d="M343.614 53.0651C339.806 53.0651 335.978 53.0651 332.147 53.0651C332.344 56.0515 334.747 58.0617 337.985 57.616C339.165 57.4541 340.234 56.9976 341.192 56.2805C341.333 56.1756 341.478 56.0769 341.679 55.9328C342.114 56.4879 342.533 57.0238 343.013 57.636C342.777 57.8519 342.575 58.0686 342.342 58.2444C340.38 59.7272 338.154 60.1312 335.774 59.8351C333.904 59.603 332.337 58.7718 331.139 57.2906C328.799 54.396 328.892 49.475 331.363 46.7447C333.334 44.5679 335.829 43.9364 338.592 44.6127C341.302 45.2758 342.814 47.2235 343.492 49.8783C343.816 51.149 343.838 52.1931 343.614 53.0651ZM341.042 50.9539C341.157 48.6307 339.091 46.5997 336.7 46.6352C334.248 46.6714 332.095 48.751 332.257 50.9539C335.185 50.9539 338.114 50.9539 341.042 50.9539Z" fill="#5124EA"/>
<path d="M269.593 53.0782C265.702 53.0782 261.896 53.0782 258.091 53.0782C258.102 55.1855 259.647 57.0692 261.703 57.5203C263.631 57.9436 265.375 57.4802 266.982 56.3768C267.17 56.248 267.35 56.1077 267.6 55.9234C268.042 56.4955 268.471 57.0507 268.92 57.6329C268.337 58.2944 267.655 58.7347 266.919 59.074C264.83 60.0363 262.651 60.2422 260.457 59.5582C257.469 58.6268 255.877 56.4477 255.469 53.3835C255.228 51.573 255.441 49.798 256.309 48.1471C257.666 45.5671 260.389 43.9895 263.82 44.4506C266.679 44.8346 268.876 47.097 269.475 50.1543C269.659 51.088 269.719 52.0241 269.593 53.0782ZM267.01 50.9685C266.889 48.4039 264.864 46.5017 262.504 46.6412C260.056 46.7862 258.002 48.8226 258.161 50.9685C261.096 50.9685 264.032 50.9685 267.01 50.9685Z" fill="#5124EA"/>
<path d="M239.097 57.9683C239.484 57.343 239.855 56.7423 240.248 56.1077C241.118 56.7184 241.989 57.1764 242.969 57.4062C244.299 57.717 245.637 57.8018 246.973 57.5057C247.459 57.3977 247.96 57.2135 248.374 56.9405C249.591 56.1401 249.504 54.5278 248.191 53.9148C247.559 53.6195 246.839 53.493 246.146 53.3604C245.174 53.1746 244.184 53.0851 243.215 52.8916C242.723 52.7937 242.241 52.5947 241.786 52.375C238.852 50.9585 239.293 47.4617 240.788 46.0144C241.795 45.0406 243.023 44.5926 244.357 44.4538C246.411 44.2402 248.417 44.4892 250.319 45.3536C250.684 45.5194 251.026 45.7391 251.449 45.9728C251.253 46.3545 251.087 46.6891 250.911 47.0176C250.743 47.3291 250.563 47.6344 250.442 47.8488C249.334 47.4794 248.32 47.0808 247.273 46.8102C246.363 46.5758 245.411 46.4933 244.479 46.7331C244.041 46.8456 243.595 46.9937 243.208 47.2219C242.54 47.6159 242.221 48.242 242.306 49.0386C242.385 49.7726 242.87 50.2044 243.503 50.3918C244.278 50.6208 245.086 50.7372 245.883 50.8876C246.73 51.048 247.59 51.1559 248.427 51.3549C248.915 51.4705 249.395 51.6772 249.838 51.9177C251.999 53.0905 252.518 55.9435 250.938 57.8473C250.262 58.6623 249.396 59.202 248.401 59.4773C245.263 60.3471 242.265 60.0163 239.457 58.2883C239.392 58.2482 239.329 58.2035 239.271 58.1549C239.233 58.1225 239.202 58.0809 239.097 57.9683Z" fill="#5124EA"/>
<path d="M326.29 46.7546C325.756 47.3213 325.251 47.8572 324.709 48.4332C324.497 48.2721 324.3 48.1271 324.107 47.9752C322.4 46.6266 320.02 46.4215 318.239 47.4671C316.349 48.5766 315.542 50.7657 315.791 52.8175C316.05 54.9426 317.08 56.541 319.166 57.2496C320.971 57.8626 322.621 57.4316 324.13 56.3305C324.332 56.1832 324.522 56.0221 324.762 55.8324C325.273 56.4092 325.76 56.9582 326.24 57.5002C325.242 59.1681 321.967 60.5221 318.695 59.6723C315.58 58.8635 313.393 56.1825 313.163 52.8129C312.92 49.2637 314.67 46.2148 317.666 44.975C320.522 43.7929 324.329 44.3257 326.29 46.7546Z" fill="#5124EA"/>
<path d="M299.249 44.7299C300.155 44.7299 300.987 44.7299 301.914 44.7299C301.806 45.0267 301.729 45.2642 301.634 45.494C299.771 49.994 297.898 54.4885 296.055 58.9962C295.844 59.5136 295.574 59.7033 295.039 59.6578C294.508 59.6131 293.969 59.6177 293.438 59.657C292.959 59.6925 292.713 59.5144 292.532 59.0618C291.847 57.3484 291.121 55.6513 290.413 53.9472C289.222 51.0835 288.032 48.2197 286.844 45.3552C286.767 45.1701 286.705 44.9789 286.616 44.7353C287.546 44.7353 288.423 44.7353 289.354 44.7353C290.979 48.7703 292.606 52.8076 294.293 56.9991C295.977 52.8292 297.604 48.8011 299.249 44.7299Z" fill="#5124EA"/>
<path d="M277.108 59.5946C276.232 59.5946 275.453 59.5946 274.678 59.5946C274.515 59.0603 274.469 45.7539 274.631 44.7399C275.419 44.7399 276.214 44.7399 277.091 44.7399C277.091 45.3051 277.091 45.8271 277.091 46.545C279.08 44.2009 281.408 43.9966 284.086 44.8124C283.887 45.6721 283.701 46.4787 283.511 47.3007C282.887 47.1488 282.334 46.9668 281.766 46.885C278.577 46.4224 277.206 48.6801 277.13 50.8846C277.064 52.7822 277.11 54.6837 277.108 56.5836C277.106 57.5567 277.108 58.5305 277.108 59.5946Z" fill="#5124EA"/>
<path d="M305.765 44.7213C306.597 44.7213 307.378 44.7213 308.211 44.7213C308.211 49.6716 308.211 54.5941 308.211 59.5752C307.419 59.5752 306.62 59.5752 305.765 59.5752C305.765 54.6504 305.765 49.7317 305.765 44.7213Z" fill="#5124EA"/>
<path d="M305.198 39.3531C305.228 38.3292 306.005 37.5851 307.022 37.6059C308.034 37.6267 308.849 38.4973 308.801 39.5081C308.754 40.4997 307.941 41.2253 306.909 41.1991C305.887 41.1729 305.166 40.3956 305.198 39.3531Z" fill="#5124EA"/>
<path d="M59.7328 18.9429C59.7681 18.9128 59.8034 18.8827 59.8387 18.8527C59.8318 18.912 59.8241 18.9706 59.8172 19.03C59.7888 19.0015 59.7604 18.9722 59.7328 18.9429Z" fill="#5124EA"/>
<path d="M40.5404 26.3884C40.5035 26.4185 40.4667 26.4478 40.4291 26.4779C40.4321 26.4162 40.4352 26.3553 40.4383 26.2936C40.4751 26.3213 40.5097 26.353 40.5404 26.3884Z" fill="#5124EA"/>
</svg>
