<?xml version="1.0" encoding="utf-8"?>
<!-- Generator: Adobe Illustrator 23.0.2, SVG Export Plug-In . SVG Version: 6.00 Build 0)  -->
<svg version="1.1" id="Шар_1" xmlns="http://www.w3.org/2000/svg" xmlns:xlink="http://www.w3.org/1999/xlink" x="0px" y="0px"
	 viewBox="0 0 512 512" style="enable-background:new 0 0 512 512;" xml:space="preserve">
<rect x="10" y="2" width="40" height="144"/>
<rect x="90" y="2" width="40" height="144"/>
<path d="M221,148c33.1,0,60-26.9,60-60V60c0-33.1-26.9-60-60-60s-60,26.9-60,60v28C161,121.1,187.9,148,221,148z M201,60
	c0-11,9-20,20-20s20,9,20,20v28c0,11-9,20-20,20s-20-9-20-20V60z"/>
<rect x="462" y="2" width="40" height="143"/>
<path d="M371,148c33.1,0,60-26.9,60-60V60c0-33.1-26.9-60-60-60s-60,26.9-60,60v28C311,121.1,337.9,148,371,148z M351,60
	c0-11,9-20,20-20s20,9,20,20v28c0,11-9,20-20,20s-20-9-20-20V60z"/>
<polygon points="339.4,254.2 303,184 303,184 303,184 263,184 263,328 303,328 303,258 339.4,328.2 339.4,328.4 379.4,328.4 
	379.4,184.4 339.4,184.4 "/>
<path d="M247.9,242c0-33.1-26.9-60-60-60s-60,26.9-60,60v28c0,33.1,26.9,60,60,60s60-26.9,60-60V242z M207.9,270c0,11-9,20-20,20
	s-20-9-20-20v-28c0-11,9-20,20-20s20,9,20,20V270z"/>
<polygon points="122.3,224 122.3,184 2.3,184 2.3,224 42.3,224 42.3,328 82.3,328 82.3,224 "/>
<polygon points="449.2,229.3 425.9,184.4 388.7,184.4 429.1,262.3 429.1,328 469.1,328 469.1,262.8 509.7,184.4 472.5,184.4 "/>
<rect x="462" y="365.5" width="40" height="144"/>
<rect x="382" y="365.5" width="40" height="144"/>
<path d="M351,451.5v-28c0-33.1-26.9-60-60-60s-60,26.9-60,60v28c0,33.1,26.9,60,60,60S351,484.6,351,451.5z M311,451.5
	c0,11-9,20-20,20s-20-9-20-20v-28c0-11,9-20,20-20s20,9,20,20V451.5z"/>
<rect x="10" y="365.5" width="40" height="143"/>
<path d="M201,451.5v-28c0-33.1-26.9-60-60-60s-60,26.9-60,60v28c0,33.1,26.9,60,60,60S201,484.6,201,451.5z M161,451.5
	c0,11-9,20-20,20s-20-9-20-20v-28c0-11,9-20,20-20s20,9,20,20V451.5z"/>
</svg>
