<?xml version="1.0" encoding="utf-8"?>
<!-- Generator: Adobe Illustrator 23.0.2, SVG Export Plug-In . SVG Version: 6.00 Build 0)  -->
<svg version="1.1" id="Шар_1" xmlns="http://www.w3.org/2000/svg" xmlns:xlink="http://www.w3.org/1999/xlink" x="0px" y="0px"
	 viewBox="0 0 326 216" style="enable-background:new 0 0 326 216;" xml:space="preserve">
<style type="text/css">
	.st0{fill:#FFFFFF;}
</style>
<g>
	<rect x="0.5" y="0.5" width="325" height="215"/>
	<path d="M325,1v214H1V1H325 M326,0H0v216h326V0L326,0z"/>
</g>
<g>
	<rect x="91.8" y="24.7" class="st0" width="13.1" height="47"/>
	<rect x="117.9" y="24.7" class="st0" width="13.1" height="47"/>
	<path class="st0" d="M160.7,72.3c10.8,0,19.6-8.8,19.6-19.6v-9.1c0-10.8-8.8-19.6-19.6-19.6c-10.8,0-19.6,8.8-19.6,19.6v9.1
		C141.1,63.5,149.9,72.3,160.7,72.3z M154.2,43.6c0-3.6,2.9-6.5,6.5-6.5c3.6,0,6.5,2.9,6.5,6.5v9.1c0,3.6-2.9,6.5-6.5,6.5
		c-3.6,0-6.5-2.9-6.5-6.5V43.6z"/>
	<rect x="239.4" y="24.7" class="st0" width="13.1" height="46.7"/>
	<path class="st0" d="M209.7,72.3c10.8,0,19.6-8.8,19.6-19.6v-9.1c0-10.8-8.8-19.6-19.6-19.6c-10.8,0-19.6,8.8-19.6,19.6v9.1
		C190.1,63.5,198.9,72.3,209.7,72.3z M203.2,43.6c0-3.6,2.9-6.5,6.5-6.5c3.6,0,6.5,2.9,6.5,6.5v9.1c0,3.6-2.9,6.5-6.5,6.5
		c-3.6,0-6.5-2.9-6.5-6.5V43.6z"/>
	<polygon class="st0" points="199.4,107 187.5,84.1 187.5,84.1 187.5,84.1 174.4,84.1 174.4,131.1 187.5,131.1 187.5,108.3 
		199.4,131.2 199.4,131.2 212.4,131.2 212.4,84.2 199.4,84.2 	"/>
	<path class="st0" d="M169.5,103c0-10.8-8.8-19.6-19.6-19.6s-19.6,8.8-19.6,19.6v9.1c0,10.8,8.8,19.6,19.6,19.6s19.6-8.8,19.6-19.6
		V103z M156.4,112.2c0,3.6-2.9,6.5-6.5,6.5s-6.5-2.9-6.5-6.5V103c0-3.6,2.9-6.5,6.5-6.5s6.5,2.9,6.5,6.5V112.2z"/>
	<polygon class="st0" points="128.5,97.2 128.5,84.1 89.3,84.1 89.3,97.2 102.4,97.2 102.4,131.1 115.4,131.1 115.4,97.2 	"/>
	<polygon class="st0" points="235.2,98.9 227.6,84.2 215.5,84.2 228.7,109.7 228.7,131.1 241.7,131.1 241.7,109.8 255,84.2 
		242.9,84.2 	"/>
	<rect x="239.4" y="143.4" class="st0" width="13.1" height="47"/>
	<rect x="213.3" y="143.4" class="st0" width="13.1" height="47"/>
	<path class="st0" d="M203.2,171.4v-9.1c0-10.8-8.8-19.6-19.6-19.6c-10.8,0-19.6,8.8-19.6,19.6v9.1c0,10.8,8.8,19.6,19.6,19.6
		C194.4,191,203.2,182.3,203.2,171.4z M190.1,171.4c0,3.6-2.9,6.5-6.5,6.5s-6.5-2.9-6.5-6.5v-9.1c0-3.6,2.9-6.5,6.5-6.5
		s6.5,2.9,6.5,6.5V171.4z"/>
	<rect x="91.8" y="143.4" class="st0" width="13.1" height="46.7"/>
	<path class="st0" d="M154.2,171.4v-9.1c0-10.8-8.8-19.6-19.6-19.6s-19.6,8.8-19.6,19.6v9.1c0,10.8,8.8,19.6,19.6,19.6
		S154.2,182.3,154.2,171.4z M141.1,171.4c0,3.6-2.9,6.5-6.5,6.5s-6.5-2.9-6.5-6.5v-9.1c0-3.6,2.9-6.5,6.5-6.5s6.5,2.9,6.5,6.5V171.4
		z"/>
</g>
</svg>
